<?xml version="1.0" standalone="no"?>
<!DOCTYPE svg PUBLIC "-//W3C//DTD SVG 20010904//EN"
 "http://www.w3.org/TR/2001/REC-SVG-20010904/DTD/svg10.dtd">
<svg version="1.0" xmlns="http://www.w3.org/2000/svg"
 width="1280.000000pt" height="720.000000pt" viewBox="0 0 1280.000000 720.000000"
 preserveAspectRatio="xMidYMid meet">
<metadata>
Created by potrace 1.16, written by Peter Selinger 2001-2019
</metadata>
<g transform="translate(0.000000,720.000000) scale(0.100000,-0.100000)"
fill="#000000" stroke="none">
<path d="M6990 4445 c-667 -102 -1249 -621 -1686 -1505 -94 -192 -164 -373
-164 -427 0 -10 37 -13 153 -13 83 0 161 3 172 6 15 4 28 31 54 112 20 61 77
190 131 297 315 623 628 993 1009 1189 96 49 260 106 366 127 91 18 330 18
420 0 568 -112 985 -591 985 -1131 0 -178 -41 -339 -129 -506 -22 -43 -39 -80
-37 -82 2 -2 18 4 36 13 120 62 236 518 202 790 -40 313 -229 631 -510 853
-176 139 -313 208 -515 258 -130 32 -344 41 -487 19z"/>
<path d="M5201 4428 c-72 -20 -111 -66 -111 -130 0 -70 36 -92 178 -107 154
-17 203 -54 213 -164 l5 -62 24 50 c56 117 34 241 -59 336 -76 78 -159 104
-250 77z"/>
<path d="M4989 4265 c-31 -68 -32 -181 -3 -246 77 -166 271 -222 386 -112 59
56 60 132 3 182 -35 31 -54 36 -160 45 -108 9 -168 47 -180 113 -11 69 -22 73
-46 18z"/>
<path d="M7384 3919 c-50 -25 -69 -106 -37 -159 46 -79 179 -58 198 30 8 36
-9 91 -35 115 -23 21 -97 29 -126 14z"/>
<path d="M6848 3890 c-14 -10 -31 -33 -38 -49 -10 -26 -10 -35 7 -63 36 -63
100 -72 149 -23 42 42 26 114 -33 144 -32 16 -57 14 -85 -9z"/>
<path d="M7619 3656 c-96 -54 -53 -206 58 -206 98 0 146 129 73 195 -26 23
-98 29 -131 11z"/>
<path d="M6605 3615 c-49 -48 -19 -125 50 -125 24 0 39 7 54 26 28 36 26 70
-5 99 -34 32 -68 32 -99 0z"/>
<path d="M7085 3615 c-56 -56 -18 -155 60 -155 48 0 95 45 95 90 0 76 -102
119 -155 65z"/>
<path d="M7844 3401 c-36 -16 -64 -60 -64 -103 0 -32 7 -47 34 -74 28 -28 42
-34 76 -34 34 0 48 6 76 34 45 45 47 101 7 146 -30 34 -89 48 -129 31z"/>
<path d="M7323 3375 c-34 -24 -47 -77 -28 -114 18 -36 43 -51 85 -51 43 0 90
47 90 90 0 68 -91 114 -147 75z"/>
<path d="M6854 3368 c-54 -26 -46 -120 12 -134 64 -16 118 39 94 97 -20 46
-59 60 -106 37z"/>
<path d="M7067 3112 c-27 -30 -22 -87 9 -111 36 -29 60 -26 95 9 24 23 28 34
23 57 -4 15 -14 36 -22 46 -20 23 -84 23 -105 -1z"/>
<path d="M7595 3121 c-25 -11 -51 -40 -59 -68 -11 -34 17 -88 53 -102 109 -46
183 113 76 163 -37 18 -41 18 -70 7z"/>
<path d="M7786 2849 c-35 -41 -34 -83 3 -120 60 -59 151 -22 151 63 0 85 -100
122 -154 57z"/>
<path d="M7302 2847 c-12 -13 -22 -36 -22 -51 0 -34 41 -76 75 -76 35 0 75 42
75 78 0 63 -84 95 -128 49z"/>
<path d="M7555 2618 c-72 -39 -51 -138 29 -138 37 0 49 7 65 38 20 38 4 82
-35 98 -39 16 -34 16 -59 2z"/>
<path d="M1945 2248 c-3 -7 -27 -101 -55 -208 -28 -107 -79 -305 -115 -440
-36 -135 -65 -251 -65 -258 0 -9 82 -12 353 -12 331 0 354 1 384 20 18 10 39
32 47 47 14 28 206 744 206 770 0 34 -31 72 -68 82 -57 16 -681 15 -687 -1z
m415 -178 c0 -7 -106 -420 -138 -535 -8 -30 -9 -30 -86 -33 -72 -3 -78 -1 -71
15 4 10 38 135 76 277 37 143 70 265 73 273 6 15 146 19 146 3z"/>
<path d="M2870 2218 c-6 -24 -22 -81 -35 -128 -13 -47 -51 -188 -84 -315 -33
-126 -74 -278 -90 -337 l-29 -108 357 0 357 0 18 73 c10 39 20 78 23 85 4 9
-39 12 -191 12 -128 0 -196 4 -196 10 0 6 12 58 26 115 l26 105 199 0 198 0
11 43 c6 23 15 54 20 70 l9 27 -193 0 c-106 0 -195 3 -198 6 -3 3 6 51 21 107
l28 102 200 3 201 2 16 68 c9 37 19 75 22 85 5 16 -16 17 -350 17 l-355 0 -11
-42z"/>
<path d="M3731 2223 c-5 -21 -44 -168 -86 -328 -117 -441 -145 -549 -145 -558
0 -4 156 -6 348 -5 l347 3 22 83 21 82 -189 0 c-104 0 -189 3 -189 6 0 6 149
570 178 676 11 37 17 70 14 73 -3 3 -74 5 -158 5 l-153 0 -10 -37z"/>
<path d="M4535 2248 c-2 -7 -33 -125 -69 -263 -164 -622 -161 -609 -130 -640
14 -14 54 -15 354 -13 l339 3 31 30 c18 18 36 49 45 80 25 90 146 547 180 678
24 94 30 130 21 133 -6 2 -77 3 -156 2 l-143 -3 -13 -40 c-7 -22 -45 -161 -84
-310 -39 -148 -80 -300 -91 -337 l-20 -68 -75 0 c-58 0 -75 3 -71 13 2 7 17
57 31 112 15 55 58 215 97 356 38 141 69 261 69 267 0 18 -309 17 -315 0z"/>
<path d="M5385 2243 c4 -10 32 -85 62 -168 30 -82 61 -167 69 -189 8 -21 14
-45 14 -52 0 -8 -74 -120 -165 -250 -90 -129 -167 -239 -170 -244 -4 -6 51
-10 147 -10 l153 1 90 131 90 131 6 -34 c4 -19 15 -78 24 -131 l17 -98 144 0
c79 0 144 3 144 6 0 3 -38 111 -85 239 -47 129 -85 238 -85 243 0 5 68 105
150 223 l150 214 -146 3 c-83 1 -151 -2 -158 -7 -6 -5 -40 -52 -76 -105 l-65
-95 -7 37 c-4 20 -7 60 -7 89 -1 87 6 83 -158 83 -134 0 -145 -1 -138 -17z"/>
<path d="M6327 2253 c-5 -8 -85 -308 -156 -583 -22 -85 -51 -197 -65 -247
l-25 -93 358 0 357 0 18 73 c10 39 20 78 23 85 4 9 -40 12 -196 12 -111 0
-201 3 -201 6 0 3 14 54 32 115 l31 109 197 0 197 0 17 58 c9 32 16 64 16 70
0 9 -50 12 -188 12 -104 0 -191 2 -194 5 -6 6 35 185 46 203 5 9 66 12 205 12
l198 0 20 77 c12 43 19 81 16 85 -6 10 -700 10 -706 1z"/>
<path d="M7876 2252 c-3 -5 -19 -62 -36 -128 -17 -65 -64 -245 -105 -399 -41
-154 -80 -306 -88 -337 l-15 -58 157 0 158 0 22 83 c12 45 31 116 42 159 l21
76 206 4 c224 4 253 10 271 57 27 68 119 449 114 473 -3 14 -16 37 -30 50
l-25 23 -343 3 c-189 2 -346 -1 -349 -6z m402 -171 c13 -8 1 -69 -44 -228
l-15 -53 -74 0 -73 0 34 133 c19 72 36 138 39 145 5 14 112 17 133 3z"/>
<path d="M8982 2233 c-10 -16 -128 -215 -262 -443 -134 -228 -250 -425 -258
-437 l-14 -23 159 0 159 0 44 91 c25 49 52 97 61 105 12 11 36 14 95 12 l79
-3 3 -102 3 -103 144 0 144 0 -5 143 c-4 78 -11 286 -18 462 l-11 320 -152 3
-151 3 -20 -28z"/>
<path d="M9656 2252 c-2 -4 -17 -55 -31 -112 -15 -58 -51 -193 -80 -300 -29
-107 -70 -258 -90 -335 -20 -77 -38 -148 -41 -157 -5 -17 16 -18 346 -18 384
0 399 2 432 58 14 24 85 277 179 641 38 150 35 186 -21 213 -31 16 -71 18
-362 18 -180 0 -329 -4 -332 -8z m404 -189 c0 -17 -126 -502 -141 -540 -8 -21
-15 -23 -83 -23 l-75 0 14 40 c8 22 41 144 75 272 34 128 63 241 66 251 8 25
144 26 144 0z"/>
<path d="M10566 2208 c-8 -29 -40 -150 -71 -268 -30 -118 -78 -300 -105 -405
-28 -104 -50 -193 -50 -197 0 -5 160 -8 355 -8 l354 0 11 43 c6 23 15 58 21
77 5 19 9 38 9 43 0 4 -88 7 -195 7 -150 0 -195 3 -195 13 0 6 13 57 29 112
l28 100 198 5 198 5 18 65 c10 36 18 66 19 68 0 1 -88 2 -195 2 -168 0 -195 2
-195 15 0 13 29 129 46 188 5 15 23 17 204 17 l199 0 11 43 c6 23 15 58 21 77
5 19 9 38 9 43 0 4 -159 7 -354 7 l-355 0 -15 -52z"/>
<path d="M11446 2243 c-3 -10 -30 -110 -60 -223 -63 -237 -174 -647 -182 -672
-5 -17 16 -18 344 -18 l350 0 16 63 c9 34 19 72 22 85 l6 22 -192 0 c-177 0
-191 1 -186 18 23 83 75 276 126 472 34 129 63 243 66 253 5 16 -7 17 -150 17
-139 0 -155 -2 -160 -17z"/>
<path d="M5173 1118 c-15 -19 -56 -195 -48 -207 3 -7 42 -11 92 -11 l86 0 -7
-42 c-9 -54 -12 -58 -47 -58 -29 0 -30 2 -24 30 l7 30 -66 0 -65 0 -11 -42
c-6 -24 -13 -48 -15 -54 -9 -27 22 -34 146 -34 70 0 139 4 153 10 26 10 35 33
87 230 31 122 34 141 18 151 -23 14 -295 11 -306 -3z"/>
<path d="M5865 1120 c-7 -11 -105 -369 -105 -382 0 -12 288 -10 310 2 20 11
34 49 79 221 36 134 36 133 15 153 -12 13 -41 16 -154 16 -83 0 -141 -4 -145
-10z m143 -188 c-17 -65 -36 -120 -42 -124 -14 -10 -56 -10 -56 0 0 6 56 213
64 238 2 6 18 9 34 6 l30 -4 -30 -116z"/>
<path d="M6257 1123 c-8 -13 -97 -360 -97 -377 0 -14 18 -16 145 -16 l145 0
10 26 c6 14 10 30 10 35 0 5 -36 9 -80 9 -87 0 -87 0 -69 63 l10 37 84 0 c47
0 85 3 85 8 0 4 3 17 6 30 6 21 4 22 -75 22 -58 0 -81 4 -81 13 0 23 21 87 28
86 4 -1 41 -1 84 0 76 1 76 1 87 32 6 18 11 34 11 35 0 8 -299 4 -303 -3z"/>
<path d="M7112 1113 c-5 -10 -21 -65 -36 -123 -15 -58 -31 -121 -36 -141 -18
-64 -77 -60 -65 5 l7 36 -65 0 -64 0 -13 -47 c-7 -27 -14 -55 -16 -64 -3 -9 3
-24 11 -33 14 -13 41 -16 150 -16 153 0 155 1 178 83 27 96 77 294 77 305 0 8
-21 12 -60 12 -46 0 -61 -4 -68 -17z"/>
<path d="M7302 1098 c-42 -154 -84 -339 -79 -352 10 -25 276 -23 305 2 15 12
34 68 66 186 25 92 46 174 46 182 0 11 -16 14 -63 14 l-64 0 -44 -162 -44
-162 -33 -3 c-17 -2 -32 0 -32 4 0 4 18 73 40 153 22 80 40 151 40 158 0 8
-19 12 -65 12 -64 0 -64 0 -73 -32z"/>
<path d="M7711 1113 c-8 -16 -101 -362 -101 -377 0 -3 65 -6 145 -6 l145 0 10
26 c16 42 13 44 -63 44 -41 0 -76 2 -79 6 -3 3 12 71 33 152 21 81 39 153 39
160 0 8 -19 12 -60 12 -46 0 -61 -4 -69 -17z"/>
<path d="M8056 1122 c-4 -8 -106 -380 -106 -389 0 -2 30 -3 66 -1 l67 3 48
180 c26 99 48 188 48 198 1 14 -8 17 -58 17 -33 0 -62 -4 -65 -8z"/>
<path d="M8250 1108 c-15 -34 -90 -324 -90 -346 0 -29 17 -32 160 -32 107 0
131 3 149 18 15 12 32 61 63 185 53 210 62 197 -134 197 -134 0 -139 -1 -148
-22z m174 -56 c2 -4 -9 -60 -26 -124 -30 -112 -32 -117 -60 -123 -16 -4 -31
-5 -34 -3 -3 4 46 202 61 246 5 13 51 17 59 4z"/>
<path d="M1612 933 l3 -58 1678 -3 1677 -2 0 60 0 60 -1680 0 -1681 0 3 -57z"/>
<path d="M8674 976 c-3 -7 -4 -33 -2 -57 l3 -44 1678 -3 1677 -2 0 60 0 60
-1675 0 c-1419 0 -1676 -2 -1681 -14z"/>
</g>
</svg>
